<?xml version="1.0" encoding="utf-8"?>
<svg version="1.1" id="al_logo" xmlns="http://www.w3.org/2000/svg" width="394" height="117" xml:space="preserve" viewbox="0 0 394 117">
	<g id="main"  transform="scale(1)">
		<path style="fill:#99887e" d="M196.8,43.4 c65.9,0 129.9,-12.9 190.1,-38.4 c2.5,-1.1 5,-2.2 7.5,-3.3 v-1.7 c-2.7,1.2 -5.4,2.4 -8.2,3.6 c-60,25.4 -123.7,38.2 -189.4,38.2 c-65.7,0 -129.4,-12.9 -189.4,-38.2 c-2.5,-1 -4.9,-2.1 -7.4,-3.2 v1.7 c2.3,1 4.5,2 6.8,3 C67.0,30.5 130.9,43.4 196.8,43.4 z"/>
    <path style="fill:#99887e" d="M0,84 L394,84 L394,85.6 L0,85.6 "/>
		<path style="fill:#1E1C77" d="M90.5,117.1 h19.5 c0.6,0 1,-0.5 1,-1 v-5.8 c0,-0.6 -0.5,-1 -1,-1 h-26.6 c-2.4,0 -6.1,-1.4 -7.8,-3.1 c-1.7,-1.7 -2.9,-5.4 -2.9,-7.8 v-26.6 c0,-0.6 -0.5,-1 -1,-1 h-6 c-0.6,0 -1,0.5 -1,1 v19.5 c0,6.9 2.7,13.4 7.6,18.3 C77.0,114.4 83.5,117.1 90.5,117.1 z"/>
		<path style="fill:#1E1C77" d="M327.5,117.1 h19.5 c0.6,0 1.1,-0.5 1.1,-1 v-5.8 c0,-0.6 -0.5,-1 -1.1,-1 h-26.6 c-2.4,0 -6.1,-1.4 -7.8,-3.1 c-1.7,-1.7 -2.9,-5.4 -2.9,-7.8 v-26.6 c0,-0.6 -0.5,-1 -1,-1 h-6 c-0.6,0 -1,0.5 -1,1 v19.5 c0,6.9 2.7,13.4 7.6,18.3 C314.1,114.4 320.6,117.1 327.5,117.1 z"/>
		<path style="fill:#1E1C77" d="M97.5,99.0 c0.4,0.4 1.1,0.4 1.5,0 l18.8,-18.8 c4.7,-4.7 11.6,-4 15.5,0 l18.8,18.8 c0.2,0.2 0.5,0.3 0.7,0.3 c0.3,0 0.5,-0.1 0.7,-0.3 l4.1,-4.1 c0.4,-0.4 0.4,-1.1 0,-1.5 l-13.8,-13.8 c-10.1,-10.1 -26.5,-10.1 -36.6,0 l-13.8,13.8 c-0.2,0.2 -0.3,0.5 -0.3,0.7 c0,0.3 0.1,0.5 0.3,0.7 L97.5,99.0 z"/>
		<path style="fill:#1E1C77" d="M222.3,90.2 c-0.4,-0.4 -1.1,-0.4 -1.5,0 l-18.8,18.8 c-4.7,4.7 -11.5,4 -15.5,0 l-18.8,-18.8 c-0.2,-0.2 -0.5,-0.3 -0.7,-0.3 c-0.3,0 -0.5,0.1 -0.7,0.3 l-4.1,4.1 c-0.4,0.4 -0.4,1.1 0,1.5 l13.8,13.8 c10.1,10.1 26.5,10.1 36.6,0 l13.8,-13.8 c0.2,-0.2 0.3,-0.5 0.3,-0.7 c0,-0.3 -0.1,-0.5 -0.3,-0.7 L222.3,90.2 z"/>
		<path style="fill:#1E1C77" d="M235.5,99.0 c0.4,0.4 1.1,0.4 1.5,0 l18.8,-18.8 c4.7,-4.7 11.5,-4 15.5,0 l18.8,18.8 c0.2,0.2 0.5,0.3 0.7,0.3 c0.3,0 0.5,-0.1 0.7,-0.3 l4.1,-4.1 c0.4,-0.4 0.4,-1.1 0,-1.5 l-13.8,-13.8 c-10.1,-10.1 -26.5,-10.1 -36.6,0 l-13.8,13.8 c-0.2,0.2 -0.3,0.5 -0.3,0.7 c0,0.3 0.1,0.5 0.3,0.7 L235.5,99.0 z"/>
		<path style="fill:#1E1C77" d="M177.9,68.8 h19.5 c0.6,0 1,-0.5 1,-1 v-5.8 c0,-0.6 -0.5,-1 -1,-1 h-26.6 c-2.5,0 -6.1,-1.4 -7.8,-3.1 c-1.7,-1.7 -2.9,-5.4 -2.9,-7.8 v-26.6 c0,-0.6 -0.5,-1 -1,-1 h-6 c-0.6,0 -1,0.5 -1,1 v19.5 c0,6.9 2.7,13.4 7.6,18.3 C164.4,66.1 170.9,68.8 177.9,68.8 z"/>
		<path style="fill:#1E1C77" d="M86.7,50.5 c0.4,0.4 1.1,0.4 1.5,0 l18.8,-18.8 c4.7,-4.7 11.5,-4 15.5,0 l18.8,18.8 c0.2,0.2 0.5,0.3 0.7,0.3 c0.3,0 0.5,-0.1 0.7,-0.3 l4.1,-4.1 c0.4,-0.4 0.4,-1.1 0,-1.5 l-13.8,-13.8 c-10.1,-10.1 -26.5,-10.1 -36.6,0 l-13.8,13.8 c-0.2,0.2 -0.3,0.5 -0.3,0.7 c0,0.3 0.1,0.5 0.3,0.7 L86.7,50.5 z"/>
		<path style="fill:#1E1C77" d="M205.5,69.1 h5.9 c0.6,0 1,-0.5 1,-1 v-26.6 c0,-3.3 1.3,-6 3.1,-7.8 c1.7,-1.7 4.2,-3.1 7.8,-3.1 h26.6 c0.6,0 1,-0.5 1,-1 v-5.9 c0,-0.6 -0.5,-1 -1,-1 h-19.5 c-14.3,0 -25.9,11.6 -25.9,25.9 v19.5 C204.5,68.6 205.0,69.1 205.5,69.1 z"/>
		<path style="fill:#1E1C77" d="M248.0,50.5 c0.4,0.4 1.1,0.4 1.5,0 l18.8,-18.8 c4.7,-4.7 11.5,-4 15.5,0 L302.6,50.6 c0.2,0.2 0.5,0.3 0.7,0.3 c0.3,0 0.5,-0.1 0.7,-0.3 l4.1,-4.1 c0.4,-0.4 0.4,-1.1 0,-1.5 l-13.8,-13.8 c-10.1,-10.1 -26.5,-10.1 -36.7,0 l-13.8,13.8 c-0.2,0.2 -0.3,0.5 -0.3,0.7 c0,0.3 0.1,0.5 0.3,0.7 L248.0,50.5 z"/>
	</g>
</svg>
